<svg width="64" height="64" viewBox="0 0 64 64" fill="none" xmlns="http://www.w3.org/2000/svg">
<rect width="64" height="64" rx="32" fill="#232F4C" fill-opacity="0.07"/>
<rect x="0.5" y="0.5" width="63" height="63" rx="31.5" stroke="#5E75AB" stroke-opacity="0.13"/>
<path d="M37.7453 41.7572H26.2547C24.9273 41.7572 23.6544 41.2299 22.7158 40.2914C21.7773 39.3528 21.25 38.0799 21.25 36.7526V27.2547C21.25 25.9273 21.7773 24.6544 22.7158 23.7158C23.6544 22.7773 24.9273 22.25 26.2547 22.25H37.7453C39.0727 22.25 40.3456 22.7773 41.2842 23.7158C42.2227 24.6544 42.75 25.9273 42.75 27.2547V36.7425C42.7513 37.4006 42.6228 38.0525 42.3719 38.6608C42.121 39.2692 41.7526 39.8221 41.2877 40.2878C40.8228 40.7536 40.2707 41.1232 39.6628 41.3753C39.055 41.6274 38.4034 41.7572 37.7453 41.7572ZM26.2547 23.7414C25.3229 23.7414 24.4293 24.1115 23.7704 24.7704C23.1115 25.4293 22.7414 26.3229 22.7414 27.2547V36.7425C22.7414 37.6743 23.1115 38.5679 23.7704 39.2268C24.4293 39.8857 25.3229 40.2558 26.2547 40.2558H37.7453C38.6771 40.2558 39.5707 39.8857 40.2296 39.2268C40.8885 38.5679 41.2586 37.6743 41.2586 36.7425V27.2547C41.2586 26.3229 40.8885 25.4293 40.2296 24.7704C39.5707 24.1115 38.6771 23.7414 37.7453 23.7414H26.2547ZM34.192 31.6888L37.4851 28.8962C37.6337 28.7649 37.726 28.5814 37.7428 28.3837C37.7596 28.1861 37.6996 27.9897 37.5752 27.8352C37.4439 27.6858 37.2593 27.5938 37.061 27.5788C36.8627 27.5638 36.6664 27.6271 36.5142 27.7551L33.2211 30.5477C32.8765 30.8378 32.4405 30.9969 31.99 30.9969C31.5395 30.9969 31.1035 30.8378 30.7588 30.5477L27.3757 27.7451C27.2231 27.6124 27.0239 27.5457 26.8221 27.5598C26.6204 27.5739 26.4324 27.6675 26.2997 27.8202C26.167 27.9728 26.1003 28.1719 26.1144 28.3737C26.1285 28.5755 26.2221 28.7634 26.3748 28.8962L29.7979 31.7088C30.4105 32.2319 31.1895 32.5193 31.995 32.5193C32.8005 32.5193 33.5795 32.2319 34.192 31.7088V31.6888Z" fill="#363636" fill-opacity="0.56"/>
</svg>
