<svg width="24" height="24" viewBox="0 0 24 24" fill="none" xmlns="http://www.w3.org/2000/svg">
<path d="M20.5407 7.84206H2.9593C2.50597 7.84206 2.0712 7.66198 1.75064 7.34142C1.43009 7.02086 1.25 6.5861 1.25 6.13276V4.17927C1.25 3.72594 1.43009 3.29117 1.75064 2.97061C2.0712 2.65006 2.50597 2.46997 2.9593 2.46997H20.5407C20.9932 2.47253 21.4265 2.65344 21.7465 2.97345C22.0665 3.29345 22.2474 3.72673 22.25 4.17927V6.13276C22.25 6.5861 22.0699 7.02086 21.7494 7.34142C21.4288 7.66198 20.994 7.84206 20.5407 7.84206V7.84206ZM2.9593 3.93509C2.89454 3.93509 2.83243 3.96081 2.78664 4.00661C2.74084 4.0524 2.71512 4.11451 2.71512 4.17927V6.13276C2.71512 6.19752 2.74084 6.25963 2.78664 6.30543C2.83243 6.35122 2.89454 6.37695 2.9593 6.37695H20.5407C20.6055 6.37695 20.6676 6.35122 20.7134 6.30543C20.7592 6.25963 20.7849 6.19752 20.7849 6.13276V4.17927C20.7849 4.11451 20.7592 4.0524 20.7134 4.00661C20.6676 3.96081 20.6055 3.93509 20.5407 3.93509H2.9593ZM20.5407 21.5165H2.9593C2.50597 21.5165 2.0712 21.3364 1.75064 21.0158C1.43009 20.6953 1.25 20.2605 1.25 19.8072V17.8537C1.25 17.4004 1.43009 16.9656 1.75064 16.645C2.0712 16.3245 2.50597 16.1444 2.9593 16.1444H20.5407C20.9932 16.147 21.4265 16.3279 21.7465 16.6479C22.0665 16.9679 22.2474 17.4011 22.25 17.8537V19.8072C22.25 20.2605 22.0699 20.6953 21.7494 21.0158C21.4288 21.3364 20.994 21.5165 20.5407 21.5165V21.5165ZM2.9593 17.6095C2.89454 17.6095 2.83243 17.6352 2.78664 17.681C2.74084 17.7268 2.71512 17.7889 2.71512 17.8537V19.8072C2.71512 19.8719 2.74084 19.934 2.78664 19.9798C2.83243 20.0256 2.89454 20.0514 2.9593 20.0514H20.5407C20.6055 20.0514 20.6676 20.0256 20.7134 19.9798C20.7592 19.934 20.7849 19.8719 20.7849 19.8072V17.8537C20.7849 17.7889 20.7592 17.7268 20.7134 17.681C20.6676 17.6352 20.6055 17.6095 20.5407 17.6095H2.9593ZM20.5407 14.6793H2.9593C2.73483 14.6793 2.51256 14.6351 2.30518 14.5492C2.0978 14.4633 1.90937 14.3374 1.75064 14.1786C1.59192 14.0199 1.46601 13.8315 1.38011 13.6241C1.29421 13.4167 1.25 13.1944 1.25 12.97V11.0165C1.25 10.5631 1.43009 10.1284 1.75064 9.80782C2.0712 9.48727 2.50597 9.30718 2.9593 9.30718H20.5407C20.9932 9.30974 21.4265 9.49065 21.7465 9.81066C22.0665 10.1307 22.2474 10.5639 22.25 11.0165V12.97C22.25 13.1944 22.2058 13.4167 22.1199 13.6241C22.034 13.8315 21.9081 14.0199 21.7494 14.1786C21.5906 14.3374 21.4022 14.4633 21.1948 14.5492C20.9874 14.6351 20.7652 14.6793 20.5407 14.6793V14.6793ZM2.9593 10.7723C2.89454 10.7723 2.83243 10.798 2.78664 10.8438C2.74084 10.8896 2.71512 10.9517 2.71512 11.0165V12.97C2.71512 13.0347 2.74084 13.0968 2.78664 13.1426C2.83243 13.1884 2.89454 13.2142 2.9593 13.2142H20.5407C20.6055 13.2142 20.6676 13.1884 20.7134 13.1426C20.7592 13.0968 20.7849 13.0347 20.7849 12.97V11.0165C20.7849 10.9517 20.7592 10.8896 20.7134 10.8438C20.6676 10.798 20.6055 10.7723 20.5407 10.7723H2.9593Z" fill="#EBEBEB"/>
</svg>
